name rise31.4854peak64.571fall78.6902.mot
datacolumns 19
datarows 29
range 22.37826500000000 22.42492700000000
endheader
time	ground_force1_vx	ground_force1_vy	ground_force1_vz	ground_force1_px	ground_force1_py	ground_force1_pz	ground_force2_vx	ground_force2_vy	ground_force2_vz	ground_force2_px	ground_force2_py	ground_force2_pz	ground_torque1_x	ground_torque1_y	ground_torque1_z	ground_torque2_x	ground_torque2_y	ground_torque2_z	
22.37826500000000	-6.75793100000000	43.38108900000000	-11.85396100000000	0.28497400000000	0.00000000000000	0.08638300000000	-45.96428100000000	763.86255400000005	-49.42854600000000	0.11032200000000	0.00000000000000	-0.09479800000000	0.00000000000000	-7.41592500000000	0.00000000000000	0.00000000000000	-17.91513900000000	0.00000000000000	
22.37992800000000	-7.26620300000000	51.26528500000000	-13.31762800000000	0.29008400000000	0.00000000000000	0.08775900000000	-46.37980800000000	761.19930899999997	-49.10058900000000	0.10964200000000	0.00000000000000	-0.09466400000000	0.00000000000000	-8.44706800000000	0.00000000000000	0.00000000000000	-17.87843500000000	0.00000000000000	
22.38158600000000	-7.60721400000000	59.35803100000000	-14.64345100000000	0.29465000000000	0.00000000000000	0.08898000000000	-46.81858800000000	758.43009300000006	-48.75323900000000	0.10895600000000	0.00000000000000	-0.09452800000000	0.00000000000000	-9.41391600000000	0.00000000000000	0.00000000000000	-17.84522500000000	0.00000000000000	
22.38325100000000	-7.76217900000000	67.56333400000000	-15.80013400000000	0.29877900000000	0.00000000000000	0.09007300000000	-47.28013400000000	755.55193399999996	-48.38636600000000	0.10826300000000	0.00000000000000	-0.09438800000000	0.00000000000000	-10.29511800000000	0.00000000000000	0.00000000000000	-17.81544800000000	0.00000000000000	
22.38492100000000	-7.72094300000000	75.80565199999999	-16.76704500000000	0.30255400000000	0.00000000000000	0.09106000000000	-47.76383700000000	752.56177600000001	-47.99987100000000	0.10756500000000	0.00000000000000	-0.09424700000000	0.00000000000000	-11.07568400000000	0.00000000000000	0.00000000000000	-17.78902300000000	0.00000000000000	
22.38658500000000	-7.48171200000000	84.03257800000000	-17.53434700000000	0.30603900000000	0.00000000000000	0.09195700000000	-48.26896500000000	749.45648200000005	-47.59368700000000	0.10686400000000	0.00000000000000	-0.09410300000000	0.00000000000000	-11.74722200000000	0.00000000000000	0.00000000000000	-17.76584000000000	0.00000000000000	
22.38825200000000	-7.05016000000000	92.21516500000000	-18.10220800000000	0.30928300000000	0.00000000000000	0.09277800000000	-48.79466100000000	746.23283900000001	-47.16778000000000	0.10615900000000	0.00000000000000	-0.09395600000000	0.00000000000000	-12.30760900000000	0.00000000000000	0.00000000000000	-17.74576900000000	0.00000000000000	
22.38992500000000	-6.43806500000000	100.34624900000000	-18.47934200000000	0.31232600000000	0.00000000000000	0.09353300000000	-49.33994500000000	742.88757099999998	-46.72214800000000	0.10545400000000	0.00000000000000	-0.09380600000000	0.00000000000000	-12.76019500000000	0.00000000000000	0.00000000000000	-17.72865300000000	0.00000000000000	
22.39158100000000	-5.66168900000000	108.43727000000000	-18.68109500000000	0.31520000000000	0.00000000000000	0.09423100000000	-49.90371500000000	739.41734699999995	-46.25682700000000	0.10474900000000	0.00000000000000	-0.09365300000000	0.00000000000000	-13.11270400000000	0.00000000000000	0.00000000000000	-17.71431100000000	0.00000000000000	
22.39324900000000	-4.74006700000000	116.51410000000000	-18.72731500000000	0.31793100000000	0.00000000000000	0.09487900000000	-50.48474700000000	735.81878700000004	-45.77188400000000	0.10404600000000	0.00000000000000	-0.09349700000000	0.00000000000000	-13.37596500000000	0.00000000000000	0.00000000000000	-17.70254000000000	0.00000000000000	
22.39492300000000	-3.69336700000000	124.61241000000000	-18.64023100000000	0.32053800000000	0.00000000000000	0.09548300000000	-51.08169700000000	732.08847600000001	-45.26742500000000	0.10334600000000	0.00000000000000	-0.09333900000000	0.00000000000000	-13.56260700000000	0.00000000000000	0.00000000000000	-17.69311000000000	0.00000000000000	
22.39658400000000	-2.54144100000000	132.77303200000000	-18.44250600000000	0.32304100000000	0.00000000000000	0.09604800000000	-51.69310400000000	728.22298100000000	-44.74358900000000	0.10265100000000	0.00000000000000	-0.09317700000000	0.00000000000000	-13.68583200000000	0.00000000000000	0.00000000000000	-17.68576900000000	0.00000000000000	
22.39824900000000	-1.30265100000000	141.03767900000000	-18.15558300000000	0.32545100000000	0.00000000000000	0.09657800000000	-52.31739400000000	724.21885499999996	-44.20055700000000	0.10196300000000	0.00000000000000	-0.09301200000000	0.00000000000000	-13.75835700000000	0.00000000000000	0.00000000000000	-17.68024200000000	0.00000000000000	
22.39992400000000	0.00699000000000	149.44530499999999	-17.79841300000000	0.32778200000000	0.00000000000000	0.09707700000000	-52.95288000000000	720.07266000000004	-43.63854200000000	0.10128300000000	0.00000000000000	-0.09284300000000	0.00000000000000	-13.79156400000000	0.00000000000000	0.00000000000000	-17.67623200000000	0.00000000000000	
22.40158200000000	1.37434300000000	158.02927700000001	-17.38659800000000	0.33004200000000	0.00000000000000	0.09754800000000	-53.59777000000000	715.78098199999999	-43.05779800000000	0.10061300000000	0.00000000000000	-0.09267200000000	0.00000000000000	-13.79490400000000	0.00000000000000	0.00000000000000	-17.67341700000000	0.00000000000000	
22.40325000000000	2.78936100000000	166.81541799999999	-16.93192600000000	0.33223800000000	0.00000000000000	0.09799400000000	-54.25016900000000	711.34044600000004	-42.45861700000000	0.09995500000000	0.00000000000000	-0.09249700000000	0.00000000000000	-13.77554900000000	0.00000000000000	0.00000000000000	-17.67145800000000	0.00000000000000	
22.40492400000000	4.24503200000000	175.82093200000000	-16.44229000000000	0.33437800000000	0.00000000000000	0.09841600000000	-54.90808500000000	706.74773400000004	-41.84132700000000	0.09931000000000	0.00000000000000	-0.09231800000000	0.00000000000000	-13.73827400000000	0.00000000000000	0.00000000000000	-17.66999400000000	0.00000000000000	
22.40658700000000	5.73710300000000	185.05411400000000	-15.92189700000000	0.33646700000000	0.00000000000000	0.09881800000000	-55.56943600000000	701.99960999999996	-41.20629500000000	0.09868100000000	0.00000000000000	-0.09213500000000	0.00000000000000	-13.68554100000000	0.00000000000000	0.00000000000000	-17.66864300000000	0.00000000000000	
22.40824900000000	7.26364400000000	194.51473799999999	-15.37172600000000	0.33850800000000	0.00000000000000	0.09919900000000	-56.23205200000000	697.09293400000001	-40.55392700000000	0.09806900000000	0.00000000000000	-0.09194900000000	0.00000000000000	-13.61774100000000	0.00000000000000	0.00000000000000	-17.66700900000000	0.00000000000000	
22.40992500000000	8.82452100000000	204.19496100000001	-14.79014200000000	0.34050600000000	0.00000000000000	0.09956400000000	-56.89368500000000	692.02468599999997	-39.88466400000000	0.09747600000000	0.00000000000000	-0.09175900000000	0.00000000000000	-13.53354800000000	0.00000000000000	0.00000000000000	-17.66467500000000	0.00000000000000	
22.41158400000000	10.42082600000000	214.08058299999999	-14.17358300000000	0.34246200000000	0.00000000000000	0.09991100000000	-57.55201700000000	686.79198399999996	-39.19898800000000	0.09690400000000	0.00000000000000	-0.09156500000000	0.00000000000000	-13.43033500000000	0.00000000000000	0.00000000000000	-17.66121200000000	0.00000000000000	
22.41324900000000	12.05431400000000	224.15250300000000	-13.51728300000000	0.34437900000000	0.00000000000000	0.10024400000000	-58.20466300000000	681.39210900000000	-38.49741500000000	0.09635400000000	0.00000000000000	-0.09136600000000	0.00000000000000	-13.30461400000000	0.00000000000000	0.00000000000000	-17.65617600000000	0.00000000000000	
22.41492200000000	13.72689800000000	234.38823900000000	-12.81593800000000	0.34625900000000	0.00000000000000	0.10056200000000	-58.84918000000000	675.82251900000006	-37.78049700000000	0.09582900000000	0.00000000000000	-0.09116400000000	0.00000000000000	-13.15246800000000	0.00000000000000	0.00000000000000	-17.64910900000000	0.00000000000000	
22.41657900000000	15.44022000000000	244.76336300000000	-12.06430100000000	0.34810200000000	0.00000000000000	0.10086700000000	-59.48307600000000	670.08087200000000	-37.04882500000000	0.09533000000000	0.00000000000000	-0.09095700000000	0.00000000000000	-12.96993100000000	0.00000000000000	0.00000000000000	-17.63954500000000	0.00000000000000	
22.41824600000000	17.19531200000000	255.25280100000001	-11.25766500000000	0.34990900000000	0.00000000000000	0.10116000000000	-60.10381800000000	664.16504299999997	-36.30302200000000	0.09485800000000	0.00000000000000	-0.09074600000000	0.00000000000000	-12.75330700000000	0.00000000000000	0.00000000000000	-17.62700800000000	0.00000000000000	
22.41992400000000	18.99237100000000	265.83189499999997	-10.39221800000000	0.35168000000000	0.00000000000000	0.10144100000000	-60.70884000000000	658.07313999999997	-35.54374700000000	0.09441500000000	0.00000000000000	-0.09053100000000	0.00000000000000	-12.49942400000000	0.00000000000000	0.00000000000000	-17.61101500000000	0.00000000000000	
22.42158200000000	20.83062600000000	276.47722199999998	-9.46528200000000	0.35341700000000	0.00000000000000	0.10171200000000	-61.29554800000000	651.80351599999995	-34.77169300000000	0.09400300000000	0.00000000000000	-0.09031100000000	0.00000000000000	-12.20579500000000	0.00000000000000	0.00000000000000	-17.59107700000000	0.00000000000000	
22.42325200000000	22.70829600000000	287.16714999999999	-8.47542100000000	0.35511700000000	0.00000000000000	0.10197300000000	-61.86133300000000	645.35478599999999	-33.98758800000000	0.09362400000000	0.00000000000000	-0.09008600000000	0.00000000000000	-11.87071600000000	0.00000000000000	0.00000000000000	-17.56670300000000	0.00000000000000	
22.42492700000000	24.62263300000000	297.88214699999997	-7.42245000000000	0.35678200000000	0.00000000000000	0.10222400000000	-62.40358000000000	638.72583299999997	-33.19219100000000	0.09327800000000	0.00000000000000	-0.08985700000000	0.00000000000000	-11.49328700000000	0.00000000000000	0.00000000000000	-17.53740100000000	0.00000000000000	
